<svg width="596" height="505" viewBox="0 0 596 505" fill="none" xmlns="http://www.w3.org/2000/svg">
<line x1="1.5" y1="285.074" x2="1.5" y2="51.8726" stroke="#F7F7F7" stroke-width="3"/>
<line x1="3.0093" y1="51.897" x2="339.855" y2="53.986" stroke="#F7F7F7" stroke-width="3"/>
<path d="M541.042 121.534C541.871 121.533 542.541 120.86 542.54 120.032C542.539 119.203 541.866 118.533 541.037 118.534L541.04 120.034L541.042 121.534ZM337.476 120.353L337.478 121.853L541.042 121.534L541.04 120.034L541.037 118.534L337.473 118.853L337.476 120.353Z" fill="#F7F7F7"/>
<line x1="339.846" y1="501.534" x2="594.386" y2="501.534" stroke="#F7F7F7" stroke-width="3"/>
<line x1="338.476" y1="1.53406" x2="595.476" y2="1.53406" stroke="#F7F7F7" stroke-width="3"/>
<line x1="338.346" y1="252.074" x2="338.346" y2="230.179" stroke="#F7F7F7" stroke-width="3" stroke-linecap="round"/>
<line x1="338.346" y1="77.8082" x2="338.346" y2="55.9131" stroke="#F7F7F7" stroke-width="3" stroke-linecap="round"/>
<path d="M592.632 305.141C592.632 305.969 593.302 306.642 594.131 306.643C594.959 306.644 595.632 305.973 595.632 305.144L594.132 305.143L592.632 305.141ZM594.132 305.143L595.632 305.144L595.976 0.0357624L594.476 0.0340746L592.976 0.0323867L592.632 305.141L594.132 305.143Z" fill="#F7F7F7"/>
<path d="M595.632 365.085C595.636 364.257 594.968 363.582 594.14 363.578C593.311 363.574 592.636 364.242 592.633 365.071L594.132 365.078L595.632 365.085ZM594.132 365.078L592.633 365.071L591.976 503.027L593.476 503.034L594.976 503.041L595.632 365.085L594.132 365.078Z" fill="#F7F7F7"/>
<line x1="338.347" y1="55.4122" x2="338.976" y2="0.0170176" stroke="#F7F7F7" stroke-width="3"/>
<path d="M336.976 186.034C336.976 186.862 337.647 187.534 338.476 187.534C339.304 187.534 339.976 186.862 339.976 186.034H338.476H336.976ZM338.476 186.034H339.976V119.034H338.476H336.976V186.034H338.476Z" fill="#F7F7F7"/>
<line x1="338.346" y1="503.034" x2="338.346" y2="252.05" stroke="#F7F7F7" stroke-width="3"/>
<line x1="1.47581" y1="283.574" x2="338.322" y2="283.574" stroke="#F7F7F7" stroke-width="3"/>
<path d="M584.733 118.961C583.905 118.961 583.233 119.633 583.233 120.461C583.233 121.29 583.905 121.961 584.733 121.961V120.461V118.961ZM584.733 120.461V121.961H593.37V120.461V118.961H584.733V120.461Z" fill="#F7F7F7"/>
<g filter="url(#filter0_d_108_59)">
<rect x="31.9111" y="94.8544" width="99.8348" height="35.2375" stroke="#F28EFF" shape-rendering="crispEdges"/>
</g>
<g filter="url(#filter1_d_108_59)">
<rect x="165.832" y="94.8544" width="35.2375" height="35.2375" stroke="#F28EFF" shape-rendering="crispEdges"/>
</g>
<g filter="url(#filter2_d_108_59)">
<rect x="280.847" y="67.2823" width="35.2375" height="35.2375" stroke="#F28EFF" shape-rendering="crispEdges"/>
</g>
<g filter="url(#filter3_d_108_59)">
<rect x="364.351" y="16.0773" width="35.2375" height="35.2375" stroke="#F28EFF" shape-rendering="crispEdges"/>
</g>
<g filter="url(#filter4_d_108_59)">
<rect x="525.056" y="153.15" width="35.2375" height="35.2375" stroke="#F28EFF" shape-rendering="crispEdges"/>
</g>
<g filter="url(#filter5_d_108_59)">
<rect x="525.056" y="203.567" width="35.2375" height="35.2375" stroke="#F28EFF" shape-rendering="crispEdges"/>
</g>
<g filter="url(#filter6_d_108_59)">
<rect x="525.056" y="253.984" width="35.2375" height="35.2375" stroke="#F28EFF" shape-rendering="crispEdges"/>
</g>
<g filter="url(#filter7_d_108_59)">
<rect x="548.689" y="16.0773" width="24.2087" height="65.9606" stroke="#F28EFF" shape-rendering="crispEdges"/>
</g>
<g filter="url(#filter8_d_108_59)">
<rect x="548.689" y="16.0773" width="24.2087" height="65.9606" stroke="#F28EFF" shape-rendering="crispEdges"/>
</g>
<g filter="url(#filter9_d_108_59)">
<rect x="440.765" y="40.2859" width="24.2087" height="65.9606" transform="rotate(-90 440.765 40.2859)" stroke="#F28EFF" shape-rendering="crispEdges"/>
</g>
<g filter="url(#filter10_d_108_59)">
<rect x="223.34" y="67.2823" width="35.2375" height="35.2375" stroke="#F28EFF" shape-rendering="crispEdges"/>
</g>
<g filter="url(#filter11_d_108_59)">
<path d="M82.1711 105.597V117.034H80.7258V107.401L77.8118 108.464V107.159L81.9446 105.597H82.1711Z" fill="#F28EFF"/>
</g>
<g filter="url(#filter12_d_108_59)">
<path d="M186.874 116.847V118.034H179.429V116.995L183.156 112.847C183.614 112.336 183.968 111.904 184.218 111.55C184.473 111.19 184.65 110.87 184.749 110.589C184.853 110.302 184.906 110.011 184.906 109.714C184.906 109.339 184.827 109 184.671 108.698C184.52 108.391 184.296 108.146 183.999 107.964C183.702 107.781 183.343 107.69 182.921 107.69C182.416 107.69 181.994 107.789 181.656 107.987C181.322 108.18 181.072 108.451 180.906 108.8C180.739 109.149 180.656 109.55 180.656 110.003H179.21C179.21 109.362 179.351 108.776 179.632 108.245C179.913 107.714 180.33 107.292 180.882 106.979C181.434 106.662 182.114 106.503 182.921 106.503C183.64 106.503 184.254 106.63 184.765 106.886C185.275 107.136 185.666 107.49 185.937 107.948C186.213 108.401 186.351 108.932 186.351 109.542C186.351 109.875 186.294 110.214 186.179 110.557C186.07 110.896 185.916 111.235 185.718 111.573C185.525 111.912 185.299 112.245 185.038 112.573C184.783 112.901 184.51 113.224 184.218 113.542L181.171 116.847H186.874Z" fill="#F28EFF"/>
</g>
<g filter="url(#filter13_d_108_59)">
<path d="M238.531 82.6356H239.562C240.067 82.6356 240.484 82.5523 240.812 82.3856C241.145 82.2137 241.392 81.982 241.554 81.6903C241.721 81.3934 241.804 81.0601 241.804 80.6903C241.804 80.2528 241.731 79.8856 241.585 79.5887C241.439 79.2919 241.221 79.0679 240.929 78.9169C240.637 78.7658 240.267 78.6903 239.82 78.6903C239.413 78.6903 239.054 78.771 238.741 78.9325C238.434 79.0887 238.192 79.3127 238.015 79.6044C237.843 79.896 237.757 80.2398 237.757 80.6356H236.312C236.312 80.0575 236.458 79.5315 236.749 79.0575C237.041 78.5835 237.45 78.2059 237.976 77.9247C238.507 77.6434 239.122 77.5028 239.82 77.5028C240.507 77.5028 241.109 77.6252 241.624 77.87C242.14 78.1096 242.541 78.469 242.827 78.9481C243.114 79.4221 243.257 80.0132 243.257 80.7216C243.257 81.008 243.189 81.3153 243.054 81.6434C242.924 81.9663 242.718 82.2684 242.437 82.5497C242.161 82.8309 241.801 83.0627 241.359 83.245C240.916 83.4221 240.385 83.5106 239.765 83.5106H238.531V82.6356ZM238.531 83.8231V82.9559H239.765C240.489 82.9559 241.088 83.0419 241.562 83.2137C242.036 83.3856 242.408 83.6148 242.679 83.9012C242.955 84.1877 243.148 84.5028 243.257 84.8466C243.372 85.1851 243.429 85.5236 243.429 85.8622C243.429 86.3934 243.338 86.8648 243.156 87.2762C242.978 87.6877 242.726 88.0367 242.398 88.3231C242.075 88.6096 241.695 88.8257 241.257 88.9716C240.82 89.1174 240.343 89.1903 239.827 89.1903C239.333 89.1903 238.866 89.12 238.429 88.9794C237.997 88.8387 237.614 88.6356 237.281 88.37C236.947 88.0992 236.687 87.7684 236.499 87.3778C236.312 86.982 236.218 86.5315 236.218 86.0262H237.663C237.663 86.4221 237.749 86.7684 237.921 87.0653C238.098 87.3622 238.348 87.594 238.671 87.7606C238.999 87.9221 239.385 88.0028 239.827 88.0028C240.27 88.0028 240.65 87.9273 240.968 87.7762C241.291 87.62 241.538 87.3856 241.71 87.0731C241.887 86.7606 241.976 86.3674 241.976 85.8934C241.976 85.4195 241.877 85.0315 241.679 84.7294C241.481 84.4221 241.2 84.1955 240.835 84.0497C240.476 83.8986 240.051 83.8231 239.562 83.8231H238.531Z" fill="#F28EFF"/>
</g>
<g filter="url(#filter14_d_108_59)">
<path d="M302.109 86.2059V87.3934H293.89V86.5419L298.984 78.6591H300.163L298.898 80.9403L295.531 86.2059H302.109ZM300.523 78.6591V90.0341H299.077V78.6591H300.523Z" fill="#F28EFF"/>
</g>
<g filter="url(#filter15_d_108_59)">
<path d="M379.249 34.62L378.093 34.3231L378.663 28.6591H384.499V29.995H379.89L379.546 33.0887C379.754 32.969 380.017 32.857 380.335 32.7528C380.658 32.6486 381.028 32.5966 381.445 32.5966C381.971 32.5966 382.442 32.6877 382.859 32.87C383.275 33.0471 383.629 33.3023 383.921 33.6356C384.218 33.969 384.445 34.37 384.601 34.8387C384.757 35.3075 384.835 35.8309 384.835 36.4091C384.835 36.9559 384.76 37.4585 384.609 37.9169C384.463 38.3752 384.241 38.7762 383.945 39.12C383.648 39.4585 383.273 39.7216 382.82 39.9091C382.372 40.0966 381.843 40.1903 381.234 40.1903C380.775 40.1903 380.34 40.1278 379.929 40.0028C379.523 39.8726 379.158 39.6773 378.835 39.4169C378.517 39.1512 378.257 38.8231 378.054 38.4325C377.856 38.0367 377.731 37.5731 377.679 37.0419H379.054C379.116 37.469 379.241 37.8283 379.429 38.12C379.616 38.4117 379.861 38.633 380.163 38.7841C380.471 38.9299 380.827 39.0028 381.234 39.0028C381.577 39.0028 381.882 38.9429 382.148 38.8231C382.413 38.7033 382.637 38.5315 382.82 38.3075C383.002 38.0835 383.14 37.8127 383.234 37.495C383.333 37.1773 383.382 36.8205 383.382 36.4247C383.382 36.0653 383.333 35.732 383.234 35.4247C383.135 35.1174 382.986 34.8492 382.788 34.62C382.596 34.3908 382.359 34.2137 382.077 34.0887C381.796 33.9585 381.473 33.8934 381.109 33.8934C380.624 33.8934 380.257 33.9585 380.007 34.0887C379.762 34.219 379.51 34.396 379.249 34.62Z" fill="#F28EFF"/>
</g>
<g filter="url(#filter16_d_108_59)">
<path d="M474.968 21.6434H475.093V22.87H474.968C474.202 22.87 473.562 22.995 473.046 23.245C472.531 23.4898 472.122 23.8205 471.82 24.2372C471.517 24.6486 471.299 25.1122 471.163 25.6278C471.033 26.1434 470.968 26.6669 470.968 27.1981V28.87C470.968 29.3752 471.028 29.8231 471.148 30.2137C471.267 30.5992 471.432 30.9247 471.64 31.1903C471.848 31.4559 472.083 31.6565 472.343 31.7919C472.609 31.9273 472.885 31.995 473.171 31.995C473.504 31.995 473.801 31.9325 474.062 31.8075C474.322 31.6773 474.541 31.4976 474.718 31.2684C474.9 31.0341 475.038 30.758 475.132 30.4403C475.226 30.1226 475.273 29.7736 475.273 29.3934C475.273 29.0549 475.231 28.7294 475.148 28.4169C475.064 28.0992 474.937 27.8179 474.765 27.5731C474.593 27.3231 474.377 27.1278 474.116 26.9872C473.861 26.8413 473.557 26.7684 473.202 26.7684C472.801 26.7684 472.426 26.8674 472.077 27.0653C471.734 27.258 471.45 27.5132 471.226 27.8309C471.007 28.1434 470.882 28.4846 470.851 28.8544L470.085 28.8466C470.158 28.2632 470.294 27.7658 470.491 27.3544C470.695 26.9377 470.945 26.5992 471.241 26.3387C471.544 26.0731 471.879 25.8804 472.249 25.7606C472.624 25.6356 473.02 25.5731 473.437 25.5731C474.004 25.5731 474.494 25.6799 474.906 25.8934C475.317 26.107 475.656 26.3934 475.921 26.7528C476.187 27.107 476.382 27.508 476.507 27.9559C476.637 28.3986 476.702 28.8544 476.702 29.3231C476.702 29.8596 476.627 30.3622 476.476 30.8309C476.325 31.2997 476.098 31.7111 475.796 32.0653C475.499 32.4195 475.132 32.6955 474.695 32.8934C474.257 33.0913 473.749 33.1903 473.171 33.1903C472.557 33.1903 472.02 33.0653 471.562 32.8153C471.103 32.5601 470.723 32.2216 470.421 31.7997C470.119 31.3778 469.892 30.9091 469.741 30.3934C469.59 29.8778 469.515 29.3544 469.515 28.8231V28.1434C469.515 27.3413 469.596 26.5549 469.757 25.7841C469.919 25.0132 470.197 24.3153 470.593 23.6903C470.994 23.0653 471.549 22.5679 472.257 22.1981C472.965 21.8283 473.869 21.6434 474.968 21.6434Z" fill="#F28EFF"/>
</g>
<g filter="url(#filter17_d_108_59)">
<path d="M563.773 42.6591V43.4716L559.062 54.0341H557.538L562.241 43.8466H556.085V42.6591H563.773Z" fill="#F28EFF"/>
</g>
<g filter="url(#filter18_d_108_59)">
<path d="M545.593 172.956C545.593 173.649 545.432 174.237 545.109 174.722C544.791 175.201 544.359 175.565 543.812 175.815C543.27 176.065 542.658 176.19 541.976 176.19C541.294 176.19 540.679 176.065 540.132 175.815C539.585 175.565 539.153 175.201 538.835 174.722C538.517 174.237 538.359 173.649 538.359 172.956C538.359 172.503 538.445 172.089 538.616 171.714C538.794 171.334 539.041 171.003 539.359 170.722C539.682 170.44 540.062 170.224 540.499 170.073C540.942 169.917 541.429 169.839 541.96 169.839C542.658 169.839 543.281 169.974 543.827 170.245C544.374 170.511 544.804 170.878 545.116 171.347C545.434 171.815 545.593 172.352 545.593 172.956ZM544.14 172.925C544.14 172.503 544.049 172.13 543.866 171.807C543.684 171.479 543.429 171.224 543.101 171.042C542.773 170.86 542.392 170.768 541.96 170.768C541.517 170.768 541.135 170.86 540.812 171.042C540.494 171.224 540.247 171.479 540.07 171.807C539.892 172.13 539.804 172.503 539.804 172.925C539.804 173.362 539.89 173.737 540.062 174.05C540.239 174.357 540.489 174.594 540.812 174.761C541.14 174.922 541.528 175.003 541.976 175.003C542.424 175.003 542.809 174.922 543.132 174.761C543.455 174.594 543.702 174.357 543.874 174.05C544.051 173.737 544.14 173.362 544.14 172.925ZM545.327 167.62C545.327 168.172 545.182 168.669 544.89 169.112C544.598 169.555 544.2 169.904 543.695 170.159C543.189 170.414 542.616 170.542 541.976 170.542C541.325 170.542 540.744 170.414 540.234 170.159C539.728 169.904 539.333 169.555 539.046 169.112C538.76 168.669 538.616 168.172 538.616 167.62C538.616 166.959 538.76 166.396 539.046 165.932C539.338 165.469 539.736 165.115 540.241 164.87C540.747 164.625 541.322 164.503 541.968 164.503C542.619 164.503 543.197 164.625 543.702 164.87C544.208 165.115 544.603 165.469 544.89 165.932C545.182 166.396 545.327 166.959 545.327 167.62ZM543.882 167.643C543.882 167.263 543.801 166.927 543.64 166.636C543.478 166.344 543.254 166.115 542.968 165.948C542.682 165.776 542.348 165.69 541.968 165.69C541.588 165.69 541.254 165.771 540.968 165.932C540.687 166.089 540.465 166.313 540.304 166.604C540.148 166.896 540.07 167.242 540.07 167.643C540.07 168.034 540.148 168.375 540.304 168.667C540.465 168.959 540.689 169.185 540.976 169.347C541.262 169.508 541.596 169.589 541.976 169.589C542.356 169.589 542.687 169.508 542.968 169.347C543.254 169.185 543.478 168.959 543.64 168.667C543.801 168.375 543.882 168.034 543.882 167.643Z" fill="#F28EFF"/>
</g>
<g filter="url(#filter19_d_108_59)">
<path d="M539.859 224.823H540.007C540.84 224.823 541.517 224.706 542.038 224.472C542.559 224.237 542.96 223.922 543.241 223.526C543.523 223.13 543.715 222.685 543.82 222.19C543.924 221.69 543.976 221.177 543.976 220.651V218.909C543.976 218.393 543.916 217.935 543.796 217.534C543.682 217.133 543.52 216.797 543.312 216.526C543.109 216.255 542.877 216.05 542.616 215.909C542.356 215.768 542.08 215.698 541.788 215.698C541.455 215.698 541.156 215.766 540.89 215.901C540.629 216.031 540.408 216.216 540.226 216.456C540.049 216.696 539.913 216.977 539.82 217.3C539.726 217.623 539.679 217.974 539.679 218.354C539.679 218.693 539.721 219.021 539.804 219.339C539.887 219.656 540.015 219.943 540.187 220.198C540.359 220.453 540.572 220.656 540.827 220.807C541.088 220.953 541.392 221.026 541.741 221.026C542.064 221.026 542.366 220.964 542.648 220.839C542.934 220.709 543.187 220.534 543.406 220.315C543.629 220.091 543.807 219.839 543.937 219.557C544.072 219.276 544.15 218.982 544.171 218.675H544.859C544.859 219.107 544.773 219.534 544.601 219.956C544.434 220.373 544.2 220.753 543.898 221.097C543.596 221.44 543.241 221.716 542.835 221.925C542.429 222.128 541.986 222.229 541.507 222.229C540.945 222.229 540.458 222.12 540.046 221.901C539.635 221.682 539.296 221.391 539.031 221.026C538.77 220.662 538.575 220.255 538.445 219.807C538.32 219.354 538.257 218.896 538.257 218.432C538.257 217.891 538.333 217.383 538.484 216.909C538.635 216.435 538.859 216.018 539.156 215.659C539.452 215.294 539.82 215.011 540.257 214.807C540.7 214.604 541.21 214.503 541.788 214.503C542.439 214.503 542.994 214.633 543.452 214.893C543.911 215.154 544.283 215.503 544.57 215.94C544.861 216.378 545.075 216.87 545.21 217.417C545.346 217.964 545.413 218.526 545.413 219.104V219.628C545.413 220.216 545.374 220.815 545.296 221.425C545.223 222.029 545.08 222.607 544.866 223.159C544.658 223.711 544.353 224.206 543.952 224.643C543.551 225.076 543.028 225.419 542.382 225.675C541.741 225.925 540.95 226.05 540.007 226.05H539.859V224.823Z" fill="#F28EFF"/>
</g>
<g filter="url(#filter20_d_108_59)">
<path d="M538.171 265.597V277.034H536.726V267.401L533.812 268.464V267.159L537.945 265.597H538.171ZM549.562 270.44V272.175C549.562 273.107 549.478 273.893 549.312 274.534C549.145 275.175 548.906 275.69 548.593 276.081C548.281 276.472 547.903 276.755 547.46 276.932C547.023 277.104 546.528 277.19 545.976 277.19C545.538 277.19 545.135 277.136 544.765 277.026C544.395 276.917 544.062 276.742 543.765 276.503C543.473 276.258 543.223 275.94 543.015 275.55C542.807 275.159 542.648 274.685 542.538 274.128C542.429 273.571 542.374 272.919 542.374 272.175V270.44C542.374 269.508 542.458 268.727 542.624 268.097C542.796 267.466 543.038 266.961 543.351 266.581C543.663 266.196 544.038 265.919 544.476 265.753C544.919 265.586 545.413 265.503 545.96 265.503C546.403 265.503 546.809 265.557 547.179 265.667C547.554 265.771 547.887 265.94 548.179 266.175C548.471 266.404 548.718 266.711 548.921 267.097C549.129 267.477 549.288 267.943 549.398 268.495C549.507 269.047 549.562 269.696 549.562 270.44ZM548.109 272.409V270.198C548.109 269.688 548.077 269.24 548.015 268.854C547.958 268.464 547.872 268.13 547.757 267.854C547.642 267.578 547.497 267.354 547.32 267.182C547.148 267.011 546.947 266.886 546.718 266.807C546.494 266.724 546.241 266.682 545.96 266.682C545.616 266.682 545.312 266.748 545.046 266.878C544.781 267.003 544.557 267.203 544.374 267.479C544.197 267.755 544.062 268.117 543.968 268.565C543.874 269.013 543.827 269.557 543.827 270.198V272.409C543.827 272.919 543.856 273.37 543.913 273.761C543.976 274.151 544.067 274.49 544.187 274.776C544.307 275.057 544.452 275.289 544.624 275.472C544.796 275.654 544.994 275.789 545.218 275.878C545.447 275.961 545.7 276.003 545.976 276.003C546.33 276.003 546.64 275.935 546.906 275.8C547.171 275.664 547.392 275.453 547.57 275.167C547.752 274.875 547.887 274.503 547.976 274.05C548.064 273.591 548.109 273.044 548.109 272.409Z" fill="#F28EFF"/>
</g>
<g filter="url(#filter21_d_108_59)">
<line x1="386.16" y1="277.32" x2="384.614" y2="500.719" stroke="#F28EFF"/>
</g>
<g filter="url(#filter22_d_108_59)">
<line x1="417.08" y1="254.126" x2="417.08" y2="500.715" stroke="#F28EFF"/>
</g>
<g filter="url(#filter23_d_108_59)">
<line x1="340.052" y1="253.626" x2="417.353" y2="253.626" stroke="#F28EFF"/>
</g>
<g filter="url(#filter24_d_108_59)">
<line x1="340.052" y1="276.816" x2="386.433" y2="276.816" stroke="#F28EFF"/>
</g>
<circle cx="434.359" cy="268.04" r="8.77607" stroke="#F7F7F7"/>
<circle cx="434.359" cy="298.96" r="8.77607" stroke="#F7F7F7"/>
<circle cx="434.359" cy="329.881" r="8.77607" stroke="#F7F7F7"/>
<circle cx="434.359" cy="360.801" r="8.77607" stroke="#F7F7F7"/>
<circle cx="434.359" cy="391.721" r="8.77607" stroke="#F7F7F7"/>
<circle cx="432.813" cy="422.641" r="8.77607" stroke="#F7F7F7"/>
<circle cx="432.813" cy="453.562" r="8.77607" stroke="#F7F7F7"/>
<circle cx="432.813" cy="484.482" r="8.77607" stroke="#F7F7F7"/>
<path d="M112.738 177.972V195.034H110.511V177.972H112.738ZM118.222 177.972V179.823H105.038V177.972H118.222ZM126.156 179.483L120.507 195.034H118.198L124.702 177.972H126.191L126.156 179.483ZM130.89 195.034L125.23 179.483L125.195 177.972H126.683L133.21 195.034H130.89ZM130.597 188.718V190.569H121.011V188.718H130.597ZM146.64 185.307V187.147H137.406V185.307H146.64ZM137.757 177.972V195.034H135.495V177.972H137.757ZM148.609 177.972V195.034H146.359V177.972H148.609ZM167.429 193.136L167.218 199.147H165.191V195.034H163.515V193.136H167.429ZM152.698 195.034V177.972H154.972V193.194H163.374V177.972H165.636V195.034H152.698ZM183.214 177.972V195.034H180.964V179.823H172.55V195.034H170.288V177.972H183.214ZM200.452 185.964V187.042C200.452 188.323 200.292 189.472 199.972 190.487C199.652 191.503 199.191 192.366 198.589 193.077C197.988 193.788 197.265 194.331 196.421 194.706C195.585 195.081 194.648 195.268 193.609 195.268C192.601 195.268 191.675 195.081 190.831 194.706C189.995 194.331 189.269 193.788 188.652 193.077C188.042 192.366 187.57 191.503 187.234 190.487C186.898 189.472 186.73 188.323 186.73 187.042V185.964C186.73 184.682 186.894 183.538 187.222 182.53C187.558 181.515 188.031 180.651 188.64 179.94C189.249 179.222 189.972 178.675 190.808 178.3C191.652 177.925 192.577 177.737 193.585 177.737C194.624 177.737 195.562 177.925 196.398 178.3C197.241 178.675 197.964 179.222 198.566 179.94C199.175 180.651 199.64 181.515 199.96 182.53C200.288 183.538 200.452 184.682 200.452 185.964ZM198.214 187.042V185.94C198.214 184.925 198.109 184.026 197.898 183.245C197.695 182.464 197.394 181.807 196.995 181.276C196.597 180.745 196.109 180.343 195.531 180.069C194.96 179.796 194.312 179.659 193.585 179.659C192.882 179.659 192.245 179.796 191.675 180.069C191.113 180.343 190.628 180.745 190.222 181.276C189.823 181.807 189.515 182.464 189.296 183.245C189.077 184.026 188.968 184.925 188.968 185.94V187.042C188.968 188.065 189.077 188.972 189.296 189.761C189.515 190.542 189.827 191.202 190.234 191.741C190.648 192.272 191.136 192.675 191.698 192.948C192.269 193.222 192.906 193.358 193.609 193.358C194.343 193.358 194.995 193.222 195.566 192.948C196.136 192.675 196.616 192.272 197.007 191.741C197.406 191.202 197.706 190.542 197.909 189.761C198.113 188.972 198.214 188.065 198.214 187.042ZM214.456 177.972V179.823H206.652V177.972H214.456ZM216.402 177.972V195.034H214.14V177.972H216.402ZM205.878 177.972H208.128L207.741 186.327C207.687 187.53 207.593 188.604 207.46 189.55C207.335 190.487 207.156 191.304 206.921 191.999C206.687 192.686 206.382 193.257 206.007 193.71C205.632 194.155 205.171 194.487 204.624 194.706C204.085 194.925 203.437 195.034 202.679 195.034H202.07V193.194L202.538 193.159C202.976 193.128 203.351 193.03 203.663 192.866C203.984 192.694 204.253 192.436 204.472 192.093C204.698 191.749 204.882 191.304 205.023 190.757C205.163 190.21 205.273 189.542 205.351 188.753C205.437 187.956 205.503 187.026 205.55 185.964L205.878 177.972Z" fill="white"/>
<path d="M23.4744 245.042L11.6546 241.365L11.6948 239.725L16.2991 240.787L28.6397 244.735L28.5998 246.363L23.4744 245.042ZM11.4859 248.253L23.2203 245.845L28.6291 245.168L28.5895 246.785L11.4308 250.503L11.4859 248.253ZM23.4587 235.629L11.8666 232.707L11.922 230.446L28.8784 234.988L28.8388 236.604L23.4587 235.629ZM11.7008 239.479L23.6841 236.478L28.8681 235.409L28.8282 237.038L16.3123 240.248L11.6612 241.095L11.7008 239.479ZM23.8688 217.926L23.9239 215.677C24.9988 215.821 25.9558 216.153 26.7949 216.673C27.634 217.194 28.2922 217.917 28.7697 218.844C29.2394 219.769 29.4575 220.916 29.424 222.282C29.3995 223.282 29.1898 224.187 28.7948 224.998C28.4 225.801 27.8518 226.487 27.1502 227.056C26.4407 227.625 25.5979 228.058 24.6216 228.354C23.6376 228.643 22.5482 228.772 21.3533 228.743L19.6545 228.701C18.4596 228.672 17.3817 228.489 16.4209 228.153C15.4525 227.809 14.628 227.332 13.9474 226.721C13.267 226.103 12.7497 225.367 12.3955 224.515C12.0413 223.662 11.8771 222.708 11.9029 221.654C11.9344 220.365 12.2032 219.282 12.7093 218.403C13.2153 217.525 13.9039 216.85 14.7751 216.379C15.6386 215.9 16.6342 215.616 17.7617 215.526L17.7066 217.775C16.9073 217.865 16.2189 218.052 15.6415 218.334C15.0563 218.617 14.6008 219.028 14.275 219.567C13.9492 220.106 13.7755 220.817 13.7539 221.699C13.7353 222.457 13.8635 223.128 14.1383 223.713C14.4133 224.291 14.8116 224.781 15.3331 225.184C15.8548 225.58 16.4843 225.885 17.2215 226.098C17.9586 226.312 18.7802 226.429 19.6862 226.452L21.4083 226.494C22.244 226.514 23.0311 226.447 23.7694 226.294C24.508 226.132 25.1589 225.878 25.7222 225.533C26.2855 225.187 26.7341 224.741 27.0679 224.194C27.3939 223.647 27.5662 222.995 27.5847 222.237C27.6082 221.277 27.4747 220.508 27.184 219.93C26.8934 219.352 26.4666 218.912 25.9035 218.609C25.3406 218.298 24.6624 218.071 23.8688 217.926Z" fill="white"/>
<path d="M355.413 397.116H357.265V405.343H372.476V407.593H355.413V397.116ZM362.363 405.87V401.218C362.363 399.968 362.573 398.913 362.995 398.054C363.409 397.194 363.991 396.542 364.741 396.097C365.491 395.651 366.37 395.429 367.378 395.429C368.128 395.429 368.816 395.554 369.441 395.804C370.058 396.054 370.597 396.425 371.058 396.917C371.511 397.409 371.863 398.015 372.113 398.733C372.355 399.452 372.476 400.28 372.476 401.218V407.593H355.413V405.331H370.636V401.218C370.636 400.382 370.484 399.706 370.179 399.19C369.866 398.667 369.46 398.284 368.96 398.042C368.46 397.8 367.925 397.679 367.355 397.679C366.784 397.679 366.261 397.8 365.784 398.042C365.308 398.284 364.929 398.667 364.648 399.19C364.359 399.706 364.214 400.382 364.214 401.218V405.87H362.363ZM356.925 386.065L372.476 391.714V394.022L355.413 387.518V386.03L356.925 386.065ZM372.476 381.331L356.925 386.991L355.413 387.026V385.538L372.476 379.011V381.331ZM366.159 381.624H368.011V391.21H366.159V381.624ZM365.784 370.432V374.991H363.945V370.432C363.945 369.55 363.804 368.835 363.523 368.288C363.241 367.741 362.851 367.343 362.351 367.093C361.851 366.835 361.281 366.706 360.64 366.706C360.054 366.706 359.503 366.835 358.988 367.093C358.472 367.343 358.058 367.741 357.745 368.288C357.425 368.835 357.265 369.55 357.265 370.432V374.464H372.476V376.725H355.413V370.432C355.413 369.143 355.636 368.054 356.081 367.163C356.527 366.272 357.144 365.597 357.933 365.136C358.714 364.675 359.609 364.444 360.616 364.444C361.71 364.444 362.644 364.675 363.417 365.136C364.191 365.597 364.781 366.272 365.187 367.163C365.585 368.054 365.784 369.143 365.784 370.432Z" fill="white"/>
<defs>
<filter id="filter0_d_108_59" x="27.4111" y="90.3544" width="108.835" height="44.2375" filterUnits="userSpaceOnUse" color-interpolation-filters="sRGB">
<feFlood flood-opacity="0" result="BackgroundImageFix"/>
<feColorMatrix in="SourceAlpha" type="matrix" values="0 0 0 0 0 0 0 0 0 0 0 0 0 0 0 0 0 0 127 0" result="hardAlpha"/>
<feOffset/>
<feGaussianBlur stdDeviation="2"/>
<feComposite in2="hardAlpha" operator="out"/>
<feColorMatrix type="matrix" values="0 0 0 0 0.94902 0 0 0 0 0.556863 0 0 0 0 1 0 0 0 1 0"/>
<feBlend mode="normal" in2="BackgroundImageFix" result="effect1_dropShadow_108_59"/>
<feBlend mode="normal" in="SourceGraphic" in2="effect1_dropShadow_108_59" result="shape"/>
</filter>
<filter id="filter1_d_108_59" x="161.332" y="90.3544" width="44.2375" height="44.2375" filterUnits="userSpaceOnUse" color-interpolation-filters="sRGB">
<feFlood flood-opacity="0" result="BackgroundImageFix"/>
<feColorMatrix in="SourceAlpha" type="matrix" values="0 0 0 0 0 0 0 0 0 0 0 0 0 0 0 0 0 0 127 0" result="hardAlpha"/>
<feOffset/>
<feGaussianBlur stdDeviation="2"/>
<feComposite in2="hardAlpha" operator="out"/>
<feColorMatrix type="matrix" values="0 0 0 0 0.94902 0 0 0 0 0.556863 0 0 0 0 1 0 0 0 1 0"/>
<feBlend mode="normal" in2="BackgroundImageFix" result="effect1_dropShadow_108_59"/>
<feBlend mode="normal" in="SourceGraphic" in2="effect1_dropShadow_108_59" result="shape"/>
</filter>
<filter id="filter2_d_108_59" x="276.347" y="62.7823" width="44.2375" height="44.2375" filterUnits="userSpaceOnUse" color-interpolation-filters="sRGB">
<feFlood flood-opacity="0" result="BackgroundImageFix"/>
<feColorMatrix in="SourceAlpha" type="matrix" values="0 0 0 0 0 0 0 0 0 0 0 0 0 0 0 0 0 0 127 0" result="hardAlpha"/>
<feOffset/>
<feGaussianBlur stdDeviation="2"/>
<feComposite in2="hardAlpha" operator="out"/>
<feColorMatrix type="matrix" values="0 0 0 0 0.94902 0 0 0 0 0.556863 0 0 0 0 1 0 0 0 1 0"/>
<feBlend mode="normal" in2="BackgroundImageFix" result="effect1_dropShadow_108_59"/>
<feBlend mode="normal" in="SourceGraphic" in2="effect1_dropShadow_108_59" result="shape"/>
</filter>
<filter id="filter3_d_108_59" x="359.851" y="11.5773" width="44.2375" height="44.2375" filterUnits="userSpaceOnUse" color-interpolation-filters="sRGB">
<feFlood flood-opacity="0" result="BackgroundImageFix"/>
<feColorMatrix in="SourceAlpha" type="matrix" values="0 0 0 0 0 0 0 0 0 0 0 0 0 0 0 0 0 0 127 0" result="hardAlpha"/>
<feOffset/>
<feGaussianBlur stdDeviation="2"/>
<feComposite in2="hardAlpha" operator="out"/>
<feColorMatrix type="matrix" values="0 0 0 0 0.94902 0 0 0 0 0.556863 0 0 0 0 1 0 0 0 1 0"/>
<feBlend mode="normal" in2="BackgroundImageFix" result="effect1_dropShadow_108_59"/>
<feBlend mode="normal" in="SourceGraphic" in2="effect1_dropShadow_108_59" result="shape"/>
</filter>
<filter id="filter4_d_108_59" x="520.556" y="148.65" width="44.2375" height="44.2375" filterUnits="userSpaceOnUse" color-interpolation-filters="sRGB">
<feFlood flood-opacity="0" result="BackgroundImageFix"/>
<feColorMatrix in="SourceAlpha" type="matrix" values="0 0 0 0 0 0 0 0 0 0 0 0 0 0 0 0 0 0 127 0" result="hardAlpha"/>
<feOffset/>
<feGaussianBlur stdDeviation="2"/>
<feComposite in2="hardAlpha" operator="out"/>
<feColorMatrix type="matrix" values="0 0 0 0 0.94902 0 0 0 0 0.556863 0 0 0 0 1 0 0 0 1 0"/>
<feBlend mode="normal" in2="BackgroundImageFix" result="effect1_dropShadow_108_59"/>
<feBlend mode="normal" in="SourceGraphic" in2="effect1_dropShadow_108_59" result="shape"/>
</filter>
<filter id="filter5_d_108_59" x="520.556" y="199.067" width="44.2375" height="44.2375" filterUnits="userSpaceOnUse" color-interpolation-filters="sRGB">
<feFlood flood-opacity="0" result="BackgroundImageFix"/>
<feColorMatrix in="SourceAlpha" type="matrix" values="0 0 0 0 0 0 0 0 0 0 0 0 0 0 0 0 0 0 127 0" result="hardAlpha"/>
<feOffset/>
<feGaussianBlur stdDeviation="2"/>
<feComposite in2="hardAlpha" operator="out"/>
<feColorMatrix type="matrix" values="0 0 0 0 0.94902 0 0 0 0 0.556863 0 0 0 0 1 0 0 0 1 0"/>
<feBlend mode="normal" in2="BackgroundImageFix" result="effect1_dropShadow_108_59"/>
<feBlend mode="normal" in="SourceGraphic" in2="effect1_dropShadow_108_59" result="shape"/>
</filter>
<filter id="filter6_d_108_59" x="520.556" y="249.484" width="44.2375" height="44.2375" filterUnits="userSpaceOnUse" color-interpolation-filters="sRGB">
<feFlood flood-opacity="0" result="BackgroundImageFix"/>
<feColorMatrix in="SourceAlpha" type="matrix" values="0 0 0 0 0 0 0 0 0 0 0 0 0 0 0 0 0 0 127 0" result="hardAlpha"/>
<feOffset/>
<feGaussianBlur stdDeviation="2"/>
<feComposite in2="hardAlpha" operator="out"/>
<feColorMatrix type="matrix" values="0 0 0 0 0.94902 0 0 0 0 0.556863 0 0 0 0 1 0 0 0 1 0"/>
<feBlend mode="normal" in2="BackgroundImageFix" result="effect1_dropShadow_108_59"/>
<feBlend mode="normal" in="SourceGraphic" in2="effect1_dropShadow_108_59" result="shape"/>
</filter>
<filter id="filter7_d_108_59" x="544.189" y="11.5773" width="33.2087" height="74.9606" filterUnits="userSpaceOnUse" color-interpolation-filters="sRGB">
<feFlood flood-opacity="0" result="BackgroundImageFix"/>
<feColorMatrix in="SourceAlpha" type="matrix" values="0 0 0 0 0 0 0 0 0 0 0 0 0 0 0 0 0 0 127 0" result="hardAlpha"/>
<feOffset/>
<feGaussianBlur stdDeviation="2"/>
<feComposite in2="hardAlpha" operator="out"/>
<feColorMatrix type="matrix" values="0 0 0 0 0.94902 0 0 0 0 0.556863 0 0 0 0 1 0 0 0 1 0"/>
<feBlend mode="normal" in2="BackgroundImageFix" result="effect1_dropShadow_108_59"/>
<feBlend mode="normal" in="SourceGraphic" in2="effect1_dropShadow_108_59" result="shape"/>
</filter>
<filter id="filter8_d_108_59" x="544.189" y="11.5773" width="33.2087" height="74.9606" filterUnits="userSpaceOnUse" color-interpolation-filters="sRGB">
<feFlood flood-opacity="0" result="BackgroundImageFix"/>
<feColorMatrix in="SourceAlpha" type="matrix" values="0 0 0 0 0 0 0 0 0 0 0 0 0 0 0 0 0 0 127 0" result="hardAlpha"/>
<feOffset/>
<feGaussianBlur stdDeviation="2"/>
<feComposite in2="hardAlpha" operator="out"/>
<feColorMatrix type="matrix" values="0 0 0 0 0.94902 0 0 0 0 0.556863 0 0 0 0 1 0 0 0 1 0"/>
<feBlend mode="normal" in2="BackgroundImageFix" result="effect1_dropShadow_108_59"/>
<feBlend mode="normal" in="SourceGraphic" in2="effect1_dropShadow_108_59" result="shape"/>
</filter>
<filter id="filter9_d_108_59" x="436.265" y="11.5771" width="74.9606" height="33.2087" filterUnits="userSpaceOnUse" color-interpolation-filters="sRGB">
<feFlood flood-opacity="0" result="BackgroundImageFix"/>
<feColorMatrix in="SourceAlpha" type="matrix" values="0 0 0 0 0 0 0 0 0 0 0 0 0 0 0 0 0 0 127 0" result="hardAlpha"/>
<feOffset/>
<feGaussianBlur stdDeviation="2"/>
<feComposite in2="hardAlpha" operator="out"/>
<feColorMatrix type="matrix" values="0 0 0 0 0.94902 0 0 0 0 0.556863 0 0 0 0 1 0 0 0 1 0"/>
<feBlend mode="normal" in2="BackgroundImageFix" result="effect1_dropShadow_108_59"/>
<feBlend mode="normal" in="SourceGraphic" in2="effect1_dropShadow_108_59" result="shape"/>
</filter>
<filter id="filter10_d_108_59" x="218.84" y="62.7823" width="44.2375" height="44.2375" filterUnits="userSpaceOnUse" color-interpolation-filters="sRGB">
<feFlood flood-opacity="0" result="BackgroundImageFix"/>
<feColorMatrix in="SourceAlpha" type="matrix" values="0 0 0 0 0 0 0 0 0 0 0 0 0 0 0 0 0 0 127 0" result="hardAlpha"/>
<feOffset/>
<feGaussianBlur stdDeviation="2"/>
<feComposite in2="hardAlpha" operator="out"/>
<feColorMatrix type="matrix" values="0 0 0 0 0.94902 0 0 0 0 0.556863 0 0 0 0 1 0 0 0 1 0"/>
<feBlend mode="normal" in2="BackgroundImageFix" result="effect1_dropShadow_108_59"/>
<feBlend mode="normal" in="SourceGraphic" in2="effect1_dropShadow_108_59" result="shape"/>
</filter>
<filter id="filter11_d_108_59" x="73.8118" y="101.597" width="12.3594" height="19.4375" filterUnits="userSpaceOnUse" color-interpolation-filters="sRGB">
<feFlood flood-opacity="0" result="BackgroundImageFix"/>
<feColorMatrix in="SourceAlpha" type="matrix" values="0 0 0 0 0 0 0 0 0 0 0 0 0 0 0 0 0 0 127 0" result="hardAlpha"/>
<feOffset/>
<feGaussianBlur stdDeviation="2"/>
<feComposite in2="hardAlpha" operator="out"/>
<feColorMatrix type="matrix" values="0 0 0 0 0.94902 0 0 0 0 0.556863 0 0 0 0 1 0 0 0 1 0"/>
<feBlend mode="normal" in2="BackgroundImageFix" result="effect1_dropShadow_108_59"/>
<feBlend mode="normal" in="SourceGraphic" in2="effect1_dropShadow_108_59" result="shape"/>
</filter>
<filter id="filter12_d_108_59" x="175.21" y="102.503" width="15.6641" height="19.5312" filterUnits="userSpaceOnUse" color-interpolation-filters="sRGB">
<feFlood flood-opacity="0" result="BackgroundImageFix"/>
<feColorMatrix in="SourceAlpha" type="matrix" values="0 0 0 0 0 0 0 0 0 0 0 0 0 0 0 0 0 0 127 0" result="hardAlpha"/>
<feOffset/>
<feGaussianBlur stdDeviation="2"/>
<feComposite in2="hardAlpha" operator="out"/>
<feColorMatrix type="matrix" values="0 0 0 0 0.94902 0 0 0 0 0.556863 0 0 0 0 1 0 0 0 1 0"/>
<feBlend mode="normal" in2="BackgroundImageFix" result="effect1_dropShadow_108_59"/>
<feBlend mode="normal" in="SourceGraphic" in2="effect1_dropShadow_108_59" result="shape"/>
</filter>
<filter id="filter13_d_108_59" x="232.218" y="73.5028" width="15.2109" height="19.6875" filterUnits="userSpaceOnUse" color-interpolation-filters="sRGB">
<feFlood flood-opacity="0" result="BackgroundImageFix"/>
<feColorMatrix in="SourceAlpha" type="matrix" values="0 0 0 0 0 0 0 0 0 0 0 0 0 0 0 0 0 0 127 0" result="hardAlpha"/>
<feOffset/>
<feGaussianBlur stdDeviation="2"/>
<feComposite in2="hardAlpha" operator="out"/>
<feColorMatrix type="matrix" values="0 0 0 0 0.94902 0 0 0 0 0.556863 0 0 0 0 1 0 0 0 1 0"/>
<feBlend mode="normal" in2="BackgroundImageFix" result="effect1_dropShadow_108_59"/>
<feBlend mode="normal" in="SourceGraphic" in2="effect1_dropShadow_108_59" result="shape"/>
</filter>
<filter id="filter14_d_108_59" x="289.89" y="74.6591" width="16.2188" height="19.375" filterUnits="userSpaceOnUse" color-interpolation-filters="sRGB">
<feFlood flood-opacity="0" result="BackgroundImageFix"/>
<feColorMatrix in="SourceAlpha" type="matrix" values="0 0 0 0 0 0 0 0 0 0 0 0 0 0 0 0 0 0 127 0" result="hardAlpha"/>
<feOffset/>
<feGaussianBlur stdDeviation="2"/>
<feComposite in2="hardAlpha" operator="out"/>
<feColorMatrix type="matrix" values="0 0 0 0 0.94902 0 0 0 0 0.556863 0 0 0 0 1 0 0 0 1 0"/>
<feBlend mode="normal" in2="BackgroundImageFix" result="effect1_dropShadow_108_59"/>
<feBlend mode="normal" in="SourceGraphic" in2="effect1_dropShadow_108_59" result="shape"/>
</filter>
<filter id="filter15_d_108_59" x="373.679" y="24.6591" width="15.1562" height="19.5312" filterUnits="userSpaceOnUse" color-interpolation-filters="sRGB">
<feFlood flood-opacity="0" result="BackgroundImageFix"/>
<feColorMatrix in="SourceAlpha" type="matrix" values="0 0 0 0 0 0 0 0 0 0 0 0 0 0 0 0 0 0 127 0" result="hardAlpha"/>
<feOffset/>
<feGaussianBlur stdDeviation="2"/>
<feComposite in2="hardAlpha" operator="out"/>
<feColorMatrix type="matrix" values="0 0 0 0 0.94902 0 0 0 0 0.556863 0 0 0 0 1 0 0 0 1 0"/>
<feBlend mode="normal" in2="BackgroundImageFix" result="effect1_dropShadow_108_59"/>
<feBlend mode="normal" in="SourceGraphic" in2="effect1_dropShadow_108_59" result="shape"/>
</filter>
<filter id="filter16_d_108_59" x="465.515" y="17.6434" width="15.1875" height="19.5469" filterUnits="userSpaceOnUse" color-interpolation-filters="sRGB">
<feFlood flood-opacity="0" result="BackgroundImageFix"/>
<feColorMatrix in="SourceAlpha" type="matrix" values="0 0 0 0 0 0 0 0 0 0 0 0 0 0 0 0 0 0 127 0" result="hardAlpha"/>
<feOffset/>
<feGaussianBlur stdDeviation="2"/>
<feComposite in2="hardAlpha" operator="out"/>
<feColorMatrix type="matrix" values="0 0 0 0 0.94902 0 0 0 0 0.556863 0 0 0 0 1 0 0 0 1 0"/>
<feBlend mode="normal" in2="BackgroundImageFix" result="effect1_dropShadow_108_59"/>
<feBlend mode="normal" in="SourceGraphic" in2="effect1_dropShadow_108_59" result="shape"/>
</filter>
<filter id="filter17_d_108_59" x="552.085" y="38.6591" width="15.6875" height="19.375" filterUnits="userSpaceOnUse" color-interpolation-filters="sRGB">
<feFlood flood-opacity="0" result="BackgroundImageFix"/>
<feColorMatrix in="SourceAlpha" type="matrix" values="0 0 0 0 0 0 0 0 0 0 0 0 0 0 0 0 0 0 127 0" result="hardAlpha"/>
<feOffset/>
<feGaussianBlur stdDeviation="2"/>
<feComposite in2="hardAlpha" operator="out"/>
<feColorMatrix type="matrix" values="0 0 0 0 0.94902 0 0 0 0 0.556863 0 0 0 0 1 0 0 0 1 0"/>
<feBlend mode="normal" in2="BackgroundImageFix" result="effect1_dropShadow_108_59"/>
<feBlend mode="normal" in="SourceGraphic" in2="effect1_dropShadow_108_59" result="shape"/>
</filter>
<filter id="filter18_d_108_59" x="534.359" y="160.503" width="15.2344" height="19.6875" filterUnits="userSpaceOnUse" color-interpolation-filters="sRGB">
<feFlood flood-opacity="0" result="BackgroundImageFix"/>
<feColorMatrix in="SourceAlpha" type="matrix" values="0 0 0 0 0 0 0 0 0 0 0 0 0 0 0 0 0 0 127 0" result="hardAlpha"/>
<feOffset/>
<feGaussianBlur stdDeviation="2"/>
<feComposite in2="hardAlpha" operator="out"/>
<feColorMatrix type="matrix" values="0 0 0 0 0.94902 0 0 0 0 0.556863 0 0 0 0 1 0 0 0 1 0"/>
<feBlend mode="normal" in2="BackgroundImageFix" result="effect1_dropShadow_108_59"/>
<feBlend mode="normal" in="SourceGraphic" in2="effect1_dropShadow_108_59" result="shape"/>
</filter>
<filter id="filter19_d_108_59" x="534.257" y="210.503" width="15.1562" height="19.5469" filterUnits="userSpaceOnUse" color-interpolation-filters="sRGB">
<feFlood flood-opacity="0" result="BackgroundImageFix"/>
<feColorMatrix in="SourceAlpha" type="matrix" values="0 0 0 0 0 0 0 0 0 0 0 0 0 0 0 0 0 0 127 0" result="hardAlpha"/>
<feOffset/>
<feGaussianBlur stdDeviation="2"/>
<feComposite in2="hardAlpha" operator="out"/>
<feColorMatrix type="matrix" values="0 0 0 0 0.94902 0 0 0 0 0.556863 0 0 0 0 1 0 0 0 1 0"/>
<feBlend mode="normal" in2="BackgroundImageFix" result="effect1_dropShadow_108_59"/>
<feBlend mode="normal" in="SourceGraphic" in2="effect1_dropShadow_108_59" result="shape"/>
</filter>
<filter id="filter20_d_108_59" x="529.812" y="261.503" width="23.75" height="19.6875" filterUnits="userSpaceOnUse" color-interpolation-filters="sRGB">
<feFlood flood-opacity="0" result="BackgroundImageFix"/>
<feColorMatrix in="SourceAlpha" type="matrix" values="0 0 0 0 0 0 0 0 0 0 0 0 0 0 0 0 0 0 127 0" result="hardAlpha"/>
<feOffset/>
<feGaussianBlur stdDeviation="2"/>
<feComposite in2="hardAlpha" operator="out"/>
<feColorMatrix type="matrix" values="0 0 0 0 0.94902 0 0 0 0 0.556863 0 0 0 0 1 0 0 0 1 0"/>
<feBlend mode="normal" in2="BackgroundImageFix" result="effect1_dropShadow_108_59"/>
<feBlend mode="normal" in="SourceGraphic" in2="effect1_dropShadow_108_59" result="shape"/>
</filter>
<filter id="filter21_d_108_59" x="380.114" y="273.316" width="10.5464" height="231.406" filterUnits="userSpaceOnUse" color-interpolation-filters="sRGB">
<feFlood flood-opacity="0" result="BackgroundImageFix"/>
<feColorMatrix in="SourceAlpha" type="matrix" values="0 0 0 0 0 0 0 0 0 0 0 0 0 0 0 0 0 0 127 0" result="hardAlpha"/>
<feOffset/>
<feGaussianBlur stdDeviation="2"/>
<feComposite in2="hardAlpha" operator="out"/>
<feColorMatrix type="matrix" values="0 0 0 0 0.94902 0 0 0 0 0.556863 0 0 0 0 1 0 0 0 1 0"/>
<feBlend mode="normal" in2="BackgroundImageFix" result="effect1_dropShadow_108_59"/>
<feBlend mode="normal" in="SourceGraphic" in2="effect1_dropShadow_108_59" result="shape"/>
</filter>
<filter id="filter22_d_108_59" x="412.58" y="250.126" width="9" height="254.589" filterUnits="userSpaceOnUse" color-interpolation-filters="sRGB">
<feFlood flood-opacity="0" result="BackgroundImageFix"/>
<feColorMatrix in="SourceAlpha" type="matrix" values="0 0 0 0 0 0 0 0 0 0 0 0 0 0 0 0 0 0 127 0" result="hardAlpha"/>
<feOffset/>
<feGaussianBlur stdDeviation="2"/>
<feComposite in2="hardAlpha" operator="out"/>
<feColorMatrix type="matrix" values="0 0 0 0 0.94902 0 0 0 0 0.556863 0 0 0 0 1 0 0 0 1 0"/>
<feBlend mode="normal" in2="BackgroundImageFix" result="effect1_dropShadow_108_59"/>
<feBlend mode="normal" in="SourceGraphic" in2="effect1_dropShadow_108_59" result="shape"/>
</filter>
<filter id="filter23_d_108_59" x="336.052" y="249.126" width="85.3006" height="9" filterUnits="userSpaceOnUse" color-interpolation-filters="sRGB">
<feFlood flood-opacity="0" result="BackgroundImageFix"/>
<feColorMatrix in="SourceAlpha" type="matrix" values="0 0 0 0 0 0 0 0 0 0 0 0 0 0 0 0 0 0 127 0" result="hardAlpha"/>
<feOffset/>
<feGaussianBlur stdDeviation="2"/>
<feComposite in2="hardAlpha" operator="out"/>
<feColorMatrix type="matrix" values="0 0 0 0 0.94902 0 0 0 0 0.556863 0 0 0 0 1 0 0 0 1 0"/>
<feBlend mode="normal" in2="BackgroundImageFix" result="effect1_dropShadow_108_59"/>
<feBlend mode="normal" in="SourceGraphic" in2="effect1_dropShadow_108_59" result="shape"/>
</filter>
<filter id="filter24_d_108_59" x="336.052" y="272.316" width="54.3804" height="9" filterUnits="userSpaceOnUse" color-interpolation-filters="sRGB">
<feFlood flood-opacity="0" result="BackgroundImageFix"/>
<feColorMatrix in="SourceAlpha" type="matrix" values="0 0 0 0 0 0 0 0 0 0 0 0 0 0 0 0 0 0 127 0" result="hardAlpha"/>
<feOffset/>
<feGaussianBlur stdDeviation="2"/>
<feComposite in2="hardAlpha" operator="out"/>
<feColorMatrix type="matrix" values="0 0 0 0 0.94902 0 0 0 0 0.556863 0 0 0 0 1 0 0 0 1 0"/>
<feBlend mode="normal" in2="BackgroundImageFix" result="effect1_dropShadow_108_59"/>
<feBlend mode="normal" in="SourceGraphic" in2="effect1_dropShadow_108_59" result="shape"/>
</filter>
</defs>
</svg>
